<svg width="103" height="103" viewBox="0 0 103 103" fill="none" xmlns="http://www.w3.org/2000/svg">
<path d="M59.5089 93.6249C83.0253 88.9502 98.2996 66.0968 93.6249 42.5803C88.9502 19.0639 66.0968 3.78959 42.5803 8.46428C19.0639 13.139 3.78959 35.9924 8.46428 59.5089C13.139 83.0253 35.9924 98.2996 59.5089 93.6249Z" stroke="#4192FF" stroke-width="1.84615" stroke-linecap="round" stroke-linejoin="round"/>
<path d="M27.776 14.38L32.4421 16.7773L41.2156 16.7214L40.7313 21.421L36.2645 24.0342L33.2804 31.9935L27.0013 37.8451L17.2284 41.1692L17.7987 45.198L21.6988 48.0296L22.6434 53.9419L12.5029 49.6271L8.43732 42.6594" stroke="#4192FF" stroke-width="1.84615" stroke-linecap="round" stroke-linejoin="round"/>
<path d="M90.6624 68.8046L85.6341 66.677L81.5943 61.4026L74.0689 52.6893L72.6084 46.3052L67.7433 44.4085L61.5124 45.2931L50.4849 42.8962L46.9235 33.4628L50.3597 27.9849L59.2917 26.2094L63.3162 29.6669L76.0535 28.1334L84.2104 23.0182M76.2834 15.7229L72.2334 19.5317L64.6633 19.6551L59.7721 18.4039L54.2277 21.3857L49.7038 21.0188L51.2986 14.1797L56.4792 13.4176L62.0422 9.03832M52.1377 94.4499L59.4256 88.4432L66.9497 86.4102L72.1312 83.9226L78.9931 84.2755M20.2938 57.5526L26.0827 48.6549L30.1275 53.3744L40.3416 52.0728L46.4882 58.2933L52.5029 57.0977L52.3322 64.9178L47.712 71.3989L48.4969 75.7309L43.4507 81.4156L45.1168 88.8335L39.7689 87.9778L35.842 81.3552L33.0479 66.7192L25.2108 66.8566L21.1083 61.6503L20.2938 57.5526Z" stroke="#4192FF" stroke-width="1.84615" stroke-linecap="round" stroke-linejoin="round"/>
</svg>
