<svg width="50" height="50" viewBox="0 0 50 50" fill="none" xmlns="http://www.w3.org/2000/svg">
<path d="M45.8337 17.0041V17.1562C45.8337 18.9479 45.8337 19.8458 45.4024 20.5791C44.9712 21.3125 44.1857 21.7479 42.6191 22.6208L40.967 23.5375C42.1045 19.6875 42.4857 15.55 42.6253 12.0125L42.6462 11.5521L42.6503 11.4437C44.0066 11.9146 44.7691 12.2666 45.2441 12.925C45.8337 13.7437 45.8337 14.8312 45.8337 17.0041ZM4.16699 17.0041V17.1562C4.16699 18.9479 4.16699 19.8458 4.59824 20.5791C5.02949 21.3125 5.81491 21.7479 7.38158 22.6208L9.03574 23.5375C7.89616 19.6875 7.51491 15.55 7.37533 12.0125L7.35449 11.5521L7.35241 11.4437C5.99408 11.9146 5.23158 12.2666 4.75658 12.925C4.16699 13.7437 4.16699 14.8333 4.16699 17.0041Z" fill="#4192FF"/>
<path fill-rule="evenodd" clip-rule="evenodd" d="M25.0001 4.16667C28.7168 4.16667 31.7772 4.49375 34.1189 4.88959C36.4918 5.28959 37.6772 5.48959 38.6689 6.71042C39.6605 7.93125 39.6064 9.25 39.5022 11.8875C39.1439 20.9479 37.1897 32.2625 26.5626 33.2625V40.625H29.5418C30.0232 40.6253 30.4897 40.7923 30.8619 41.0977C31.2341 41.403 31.4891 41.8279 31.5834 42.3L31.9793 44.2708H37.5001C37.9145 44.2708 38.3119 44.4355 38.605 44.7285C38.898 45.0215 39.0626 45.4189 39.0626 45.8333C39.0626 46.2477 38.898 46.6452 38.605 46.9382C38.3119 47.2312 37.9145 47.3958 37.5001 47.3958H12.5001C12.0857 47.3958 11.6883 47.2312 11.3953 46.9382C11.1022 46.6452 10.9376 46.2477 10.9376 45.8333C10.9376 45.4189 11.1022 45.0215 11.3953 44.7285C11.6883 44.4355 12.0857 44.2708 12.5001 44.2708H18.0209L18.4168 42.3C18.5111 41.8279 18.7661 41.403 19.1383 41.0977C19.5105 40.7923 19.977 40.6253 20.4584 40.625H23.4376V33.2625C12.8126 32.2625 10.8584 20.9458 10.5001 11.8875C10.3939 9.25 10.3418 7.92917 11.3334 6.71042C12.323 5.48959 13.5084 5.28959 15.8814 4.88959C18.8956 4.39583 21.9457 4.15402 25.0001 4.16667ZM26.9834 12.9146L26.7793 12.5479C25.9876 11.125 25.5918 10.4167 25.0001 10.4167C24.4084 10.4167 24.0126 11.125 23.2209 12.5479L23.0168 12.9146C22.7918 13.3188 22.6793 13.5188 22.5043 13.6521C22.3272 13.7854 22.1084 13.8354 21.6709 13.9333L21.2751 14.025C19.7376 14.3729 18.9689 14.5458 18.7855 15.1333C18.6022 15.7208 19.1272 16.3354 20.1751 17.5604L20.4459 17.8771C20.7439 18.225 20.8939 18.3979 20.9605 18.6146C21.0272 18.8313 21.0043 19.0625 20.9605 19.5271L20.9189 19.95C20.7605 21.5854 20.6814 22.4042 21.1584 22.7667C21.6376 23.1292 22.3584 22.7979 23.798 22.1354L24.1689 21.9646C24.5793 21.7771 24.7834 21.6833 25.0001 21.6833C25.2168 21.6833 25.4209 21.7771 25.8314 21.9646L26.2022 22.1354C27.6418 22.8 28.3626 23.1292 28.8418 22.7667C29.3209 22.4042 29.2397 21.5854 29.0814 19.95L29.0397 19.5271C28.9959 19.0625 28.973 18.8313 29.0397 18.6146C29.1064 18.3979 29.2564 18.225 29.5543 17.8771L29.8251 17.5604C30.873 16.3354 31.398 15.7229 31.2147 15.1333C31.0314 14.5458 30.2626 14.3729 28.7251 14.025L28.3293 13.9333C27.8918 13.8354 27.673 13.7875 27.4959 13.6521C27.3209 13.5188 27.2084 13.3188 26.9834 12.9146Z" fill="#4192FF"/>
</svg>
