<svg width="44" height="44" viewBox="0 0 44 44" fill="none" xmlns="http://www.w3.org/2000/svg">
<path d="M21.8333 42.6667C33.3396 42.6667 42.6667 33.3396 42.6667 21.8333C42.6667 10.3271 33.3396 1 21.8333 1C10.3271 1 1 10.3271 1 21.8333C1 33.3396 10.3271 42.6667 21.8333 42.6667Z" stroke="#4192FF" stroke-width="2" stroke-linecap="round" stroke-linejoin="round"/>
<path d="M1 21.8333H42.6667" stroke="#4192FF" stroke-width="2" stroke-linecap="round" stroke-linejoin="round"/>
<path d="M21.8333 42.6667C26.4354 42.6667 30.1667 33.3396 30.1667 21.8333C30.1667 10.3271 26.4354 1 21.8333 1C17.2312 1 13.5 10.3271 13.5 21.8333C13.5 33.3396 17.2312 42.6667 21.8333 42.6667Z" stroke="#4192FF" stroke-width="2" stroke-linecap="round" stroke-linejoin="round"/>
<path d="M7.10254 7.39789C9.03501 9.33522 11.3312 10.8716 13.8593 11.9188C16.3874 12.966 19.0974 13.5033 21.8338 13.5C24.5702 13.5033 27.2802 12.966 29.8083 11.9188C32.3363 10.8716 34.6326 9.33522 36.565 7.39789M36.565 36.2687C34.6326 34.3314 32.3363 32.795 29.8083 31.7478C27.2802 30.7006 24.5702 30.1633 21.8338 30.1666C19.0974 30.1633 16.3874 30.7006 13.8593 31.7478C11.3312 32.795 9.03501 34.3314 7.10254 36.2687" stroke="#4192FF" stroke-width="2" stroke-linecap="round" stroke-linejoin="round"/>
</svg>
