<svg width="97" height="97" viewBox="0 0 97 97" fill="none" xmlns="http://www.w3.org/2000/svg">
<path d="M47.0732 12.0088C47.5223 10.6268 49.4777 10.6268 49.9268 12.0088L57.1172 34.1396C57.452 35.1696 58.4121 35.8672 59.4951 35.8672H82.7646C84.2175 35.8673 84.8216 37.7259 83.6465 38.5801L64.8203 52.2578C63.9444 52.8944 63.5776 54.0229 63.9121 55.0527L71.1035 77.1836C71.5525 78.5655 69.9705 79.7144 68.7949 78.8604L49.9697 65.1836C49.0935 64.547 47.9065 64.547 47.0303 65.1836L28.2051 78.8604C27.0295 79.7144 25.4475 78.5655 25.8965 77.1836L33.0879 55.0527C33.4224 54.0229 33.0556 52.8944 32.1797 52.2578L13.3535 38.5801C12.1784 37.7259 12.7825 35.8673 14.2354 35.8672H37.5049C38.5879 35.8672 39.548 35.1696 39.8828 34.1396L47.0732 12.0088Z" stroke="#4192FF"/>
<path d="M45.1709 11.8623C46.2188 8.63805 50.7812 8.63805 51.8291 11.8623L58.0156 30.9033C58.6181 32.7573 60.3455 34.0126 62.2949 34.0127H82.3154C85.7058 34.0127 87.1155 38.3507 84.373 40.3438L68.1758 52.1123C66.5988 53.2582 65.9386 55.2896 66.541 57.1436L72.7275 76.1836C73.7753 79.4082 70.0848 82.0896 67.3418 80.0967L51.1455 68.3291C49.5683 67.1832 47.4317 67.1832 45.8545 68.3291L29.6582 80.0967C26.9152 82.0896 23.2247 79.4082 24.2725 76.1836L30.459 57.1436C31.0614 55.2896 30.4012 53.2582 28.8242 52.1123L12.627 40.3438C9.88452 38.3507 11.2942 34.0127 14.6846 34.0127H34.7051C36.6545 34.0126 38.3819 32.7573 38.9844 30.9033L45.1709 11.8623Z" stroke="#4192FF"/>
</svg>
